<svg width="484" height="396" viewBox="0 0 484 396" fill="none" xmlns="http://www.w3.org/2000/svg">
<g clip-path="url(#clip0_101_19)">
<path d="M338.88 74.4994C339.117 75.9823 339.984 77.3231 341.298 78.2365C342.612 79.1499 344.269 79.5638 345.915 79.3902C346.249 79.3501 346.579 79.2851 346.901 79.1959L360.164 95.2875L371.565 92.0773L350.76 71.8093C350.247 70.6304 349.317 69.6381 348.114 68.9872C346.912 68.3364 345.505 68.0637 344.113 68.2116C343.322 68.3026 342.559 68.5336 341.866 68.8914C341.174 69.2491 340.567 69.7267 340.078 70.2967C339.59 70.8667 339.231 71.518 339.021 72.2135C338.812 72.909 338.756 73.635 338.856 74.3501C338.863 74.4 338.871 74.4497 338.88 74.4994Z" fill="#A0616A"/>
<path d="M432.531 146.369C432.531 146.369 383.009 125.478 370.481 112.134L348.034 86.9408L359.419 78.5224L380.518 100.49C380.326 105.106 405.265 109.838 418.671 116.567L432.531 146.369Z" fill="#E6E6E6"/>
<path d="M444.706 385.725L434.993 385.724L430.372 351.856L444.708 351.857L444.706 385.725Z" fill="#A0616A"/>
<path d="M445.048 394.884L415.177 394.883V394.542C415.178 391.754 416.403 389.081 418.583 387.111C420.763 385.14 423.721 384.032 426.804 384.032L432.261 380.291L442.441 384.033L445.049 384.033L445.048 394.884Z" fill="#2F2E41"/>
<path d="M421.548 377.978L412.089 379.972L399.076 347.94L413.037 344.996L421.548 377.978Z" fill="#A0616A"/>
<path d="M424.184 386.828L395.095 392.962L395.009 392.629C394.309 389.915 394.83 387.06 396.457 384.693C398.085 382.326 400.687 380.641 403.69 380.007L403.69 380.007L408.063 375.242L418.918 376.796L421.457 376.26L424.184 386.828Z" fill="#2F2E41"/>
<path d="M1.399 93.6836V43.8122C1.40192 42.2557 2.08772 40.7639 3.30596 39.6639C4.52421 38.5639 6.17539 37.9457 7.8973 37.9447H79.3928V36.6802H7.8973C5.80447 36.6814 3.79766 37.433 2.31713 38.7701C0.836608 40.1071 0.00328767 41.9205 0 43.8122V93.6836L1.399 93.6836Z" fill="white"/>
<path d="M6.36171 213.75C4.94445 213.442 3.68351 212.711 2.7829 211.675C1.88229 210.639 1.39469 209.359 1.39898 208.041V158.176H-2.60993e-05V208.041C-0.00530211 209.642 0.587151 211.198 1.68146 212.457C2.77577 213.716 4.30793 214.604 6.03006 214.978C6.60706 215.106 7.19839 215.174 7.79246 215.18H79.3928V213.915H7.801C7.31584 213.91 6.83296 213.854 6.36171 213.75Z" fill="white"/>
<path d="M326.665 158.176V208.041C326.663 209.599 325.977 211.092 324.759 212.193C323.541 213.294 321.889 213.914 320.166 213.915H248.671V215.18H320.166C322.26 215.178 324.267 214.425 325.748 213.087C327.228 211.748 328.061 209.934 328.064 208.041V158.176H326.665Z" fill="white"/>
<path d="M325.259 38.6076C325.626 38.7798 325.973 38.9848 326.295 39.2195C327.067 39.7645 327.69 40.4616 328.118 41.2575C328.545 42.0535 328.766 42.9273 328.763 43.8122V93.6836H330.162V43.8122C330.166 42.7369 329.898 41.675 329.379 40.7075C328.86 39.74 328.103 38.8925 327.166 38.2297C326.774 37.9442 326.351 37.6949 325.904 37.4853C324.781 36.9535 323.532 36.6772 322.265 36.6802H250.769V37.9448H322.265C323.308 37.9423 324.336 38.1698 325.259 38.6076Z" fill="white"/>
<path d="M453.123 221.281L392.685 224.02L388.488 242.356V258.688L385.912 319.499L403.877 366.915H418.28L416.818 360.909C417.617 359.899 418.066 358.697 418.108 357.456C418.151 356.216 417.785 354.991 417.056 353.939L415.901 352.269L414.02 345.102L409.823 318.546L427.798 258.688L430.108 367.864H445.755L448.05 365.495C449.325 364.179 450.083 362.52 450.209 360.775C450.334 359.029 449.819 357.296 448.744 355.842V353.194L446.896 343.837L464.141 227.681L453.123 221.281Z" fill="#2F2E41"/>
<path d="M427.009 107.454L407.294 108.367L405.054 116.813L390.737 126.717C387.501 128.956 385.021 131.969 383.578 135.415C382.136 138.861 381.788 142.602 382.574 146.218L390.51 182.711L389.994 205.551L391.139 214.904L391.053 216.32L389.3 217.617C388.107 218.5 387.282 219.723 386.961 221.085C386.64 222.448 386.841 223.868 387.532 225.114C387.532 225.114 378.892 241.997 391.393 242.856C403.894 243.715 411.626 231.965 423.57 236.533C435.514 241.101 446.177 241.636 449.451 236.533C452.726 231.43 462.687 232.62 463.885 228.161C465.083 223.703 459.018 218.657 458.203 212.012C457.389 205.367 455.29 174.385 455.29 174.385L461.159 143.968C461.99 139.662 461.249 135.228 459.048 131.336C456.847 127.443 453.305 124.303 448.957 122.39L430.168 114.121L427.009 107.454Z" fill="#E6E6E6"/>
<path d="M324.334 202.689C325.127 201.142 326.556 199.936 328.317 199.327C330.079 198.718 332.034 198.755 333.766 199.429C334.116 199.571 334.452 199.739 334.771 199.932L355.029 186.296L366.3 193.153L336.315 209.12C335.331 210.254 333.959 211.062 332.414 211.418C330.869 211.773 329.237 211.656 327.773 211.085C326.943 210.752 326.194 210.276 325.568 209.682C324.942 209.088 324.452 208.388 324.126 207.623C323.799 206.858 323.642 206.042 323.664 205.222C323.686 204.402 323.887 203.594 324.254 202.845C324.28 202.792 324.306 202.74 324.334 202.689Z" fill="#A0616A"/>
<path d="M387.277 130.778C387.277 130.778 361.017 174 350.848 186.712L343.128 192.163L343.827 209.977L361.078 201.373C361.078 201.373 395.889 177.538 394.891 167.614C393.892 157.691 387.277 130.778 387.277 130.778Z" fill="#E6E6E6"/>
<path d="M415.479 106.027C425.767 106.027 434.107 98.488 434.107 89.1882C434.107 79.8884 425.767 72.3494 415.479 72.3494C405.19 72.3494 396.85 79.8884 396.85 89.1882C396.85 98.488 405.19 106.027 415.479 106.027Z" fill="#A0616A"/>
<path d="M422.677 104.647C417.331 104.488 416.845 103.212 411.5 103.053C409.798 103.003 407.789 102.792 406.966 101.444C406.38 100.484 406.65 99.2754 407.165 98.2831C407.775 97.336 408.325 96.3584 408.812 95.3548C409.106 94.5678 409.183 93.7281 409.036 92.9082C408.89 92.0883 408.525 91.3129 407.974 90.649C407.422 89.9851 406.699 89.4527 405.868 89.0977C405.038 88.7428 404.124 88.5761 403.206 88.612C401.579 88.6755 400.051 89.367 398.429 89.4934C396.204 89.6667 391.284 83.0266 392.309 81.2329C393.306 79.487 395.313 78.1697 395.628 76.2256C395.834 74.9541 395.254 73.6907 395.174 72.4076C395.057 70.5051 400.392 74.7948 399.415 73.1064C397.018 68.9646 419.604 63.8299 423.323 69.0179C424.713 70.9568 427.189 70.8246 429.397 71.9891C430.844 72.7523 434.497 75.3853 435.328 77.0264C436.091 78.7009 436.452 80.503 436.386 82.3132C436.419 90.7315 435 98.4751 427.488 103.451" fill="#2F2E41"/>
<path d="M329.804 391.006C324.753 391.409 319.666 390.786 314.915 389.184C310.164 387.582 305.868 385.041 302.343 381.746C297.733 377.353 294.569 371.698 291.509 366.229C290.619 364.638 289.698 362.992 288.762 361.415C287.718 359.695 287.267 357.733 287.468 355.779C287.669 353.826 288.512 351.972 289.889 350.456C291.209 348.941 293 347.817 295.033 347.23C297.065 346.643 299.246 346.62 301.293 347.163L301.739 347.279L305.757 361.451C306.357 359.338 307.644 354.575 308.456 349.908L308.524 349.518L308.924 349.679C313.12 351.357 317.065 353.505 320.666 356.074C327.046 360.7 332.235 366.526 335.873 373.148C339.51 379.77 341.509 387.028 341.73 394.418L341.74 394.859L329.804 391.006Z" fill="#F2F2F2"/>
<path d="M189.379 156.821C187.934 156.821 186.762 155.648 186.762 154.202C186.762 152.755 187.934 151.582 189.379 151.582C190.823 151.582 191.995 152.755 191.995 154.202C191.995 155.648 190.823 156.821 189.379 156.821Z" fill="#3F3D56"/>
<path d="M169.612 179.524C168.167 179.524 166.996 178.351 166.996 176.904C166.996 175.457 168.167 174.285 169.612 174.285C171.057 174.285 172.228 175.457 172.228 176.904C172.228 178.351 171.057 179.524 169.612 179.524Z" fill="#3F3D56"/>
<path d="M196.5 143.578L173.827 172.975C173.827 172.975 169.176 181.707 161.909 179.087C154.642 176.468 165.688 168.609 165.688 168.609L187.78 139.212C187.78 139.212 190.687 131.312 196.5 132.934C202.314 134.555 196.5 143.578 196.5 143.578Z" fill="#379213"/>
<path d="M158.175 164.232L162.005 166.262L171.649 152.433L165.995 149.437L158.175 164.232Z" fill="#A0616A"/>
<path d="M171.344 171.101C171.357 171.365 171.077 172.048 170.953 172.282C170.573 173.001 169.683 173.275 168.965 172.894L157.103 166.606C156.613 166.347 156.426 165.739 156.685 165.248L156.947 164.754C156.947 164.754 157.145 162.956 159.322 161.765C159.322 161.765 160.065 163.995 163.497 162.938L164.793 162.088L167.728 168.135L170.21 169.869C170.753 170.248 171.312 170.439 171.344 171.101Z" fill="#2F2E41"/>
<path d="M177.069 139.492L180.9 141.522L190.543 127.694L184.89 124.697L177.069 139.492Z" fill="#A0616A"/>
<path d="M190.239 146.361C190.252 146.625 189.971 147.308 189.848 147.542C189.468 148.261 188.577 148.535 187.859 148.154L175.997 141.867C175.507 141.607 175.32 140.999 175.579 140.508L175.841 140.014C175.841 140.014 176.04 138.217 178.217 137.025C178.217 137.025 178.96 139.255 182.391 138.198L183.688 137.348L186.623 143.395L189.105 145.129C189.648 145.508 190.206 145.699 190.239 146.361Z" fill="#2F2E41"/>
<path d="M163.363 110.106L177.606 133.1L162.781 154.056L168.595 156.967C168.595 156.967 187.489 136.884 188.071 134.264C188.652 131.645 182.257 113.308 182.257 113.308H194.398L182.838 127.861L188.361 131.354L208.128 112.144C208.128 112.144 210.453 108.275 208.128 106.862C205.802 105.449 184.95 96.1355 184.95 96.1355L163.363 110.106Z" fill="#2F2E41"/>
<path d="M196.064 151C194.619 151 193.448 149.827 193.448 148.38C193.448 146.934 194.619 145.761 196.064 145.761C197.509 145.761 198.68 146.934 198.68 148.38C198.68 149.827 197.509 151 196.064 151Z" fill="#3F3D56"/>
<path d="M176.443 176.176C174.998 176.176 173.827 175.004 173.827 173.557C173.827 172.11 174.998 170.937 176.443 170.937C177.888 170.937 179.059 172.11 179.059 173.557C179.059 175.004 177.888 176.176 176.443 176.176Z" fill="#3F3D56"/>
<path d="M198.099 75.6158L193.739 67.4662C193.739 67.4662 180.384 70.0857 176.161 75.6158C171.938 81.1459 164.38 95.6989 164.38 95.6989C164.38 95.6989 158.566 107.341 163.799 113.744C169.031 120.148 175.717 107.341 175.717 107.341L185.309 96.572L186.472 96.281L198.099 75.6158Z" fill="#379213"/>
<path d="M204.733 109.841C204.361 108.937 203.778 108.136 203.034 107.505L196.738 90.6316L191.866 92.5107L199.046 109.215C198.989 110.189 199.166 111.164 199.562 112.056C200.523 114.303 202.459 115.628 203.887 115.016C205.315 114.404 205.693 112.087 204.733 109.841Z" fill="#A0616A"/>
<path d="M194.756 76.0524L183.274 79.6907L192.721 96.1355L199.989 95.5533L194.756 76.0524Z" fill="#379213"/>
<path d="M221.585 89.6048C220.67 89.2673 219.687 89.1544 218.718 89.2754L202.053 82.4936L200.136 87.3563L217.276 93.3717C217.954 94.0737 218.79 94.6029 219.714 94.915C222.016 95.7281 224.301 95.1981 224.817 93.7315C225.334 92.2649 223.887 90.4172 221.585 89.6048Z" fill="#A0616A"/>
<path d="M194.03 72.4142L185.589 81.8907L203.38 89.1792L207.871 83.4294L194.03 72.4142Z" fill="#379213"/>
<path d="M197.518 59.0656C195.569 59.0656 193.989 57.4839 193.989 55.5328C193.989 53.5817 195.569 52 197.518 52C199.466 52 201.046 53.5817 201.046 55.5328C201.046 57.4839 199.466 59.0656 197.518 59.0656Z" fill="#2F2E41"/>
<path d="M202.937 71.3697C198.694 71.3697 195.253 67.9251 195.253 63.6761C195.253 59.427 198.694 55.9825 202.937 55.9825C207.181 55.9825 210.621 59.427 210.621 63.6761C210.621 67.9251 207.181 71.3697 202.937 71.3697Z" fill="#A0616A"/>
<path d="M197.426 70.5058C196.506 70.5882 195.003 68.2304 195.07 65.947C195.113 64.478 193.84 64.1891 193.745 62.2947C193.69 61.1908 195.383 60.8466 195.499 59.9613C195.71 58.3571 196.744 57.2776 196.873 57.1464C197.987 56.0136 198.773 56.3818 200.083 55.069C200.872 54.2786 200.67 54.062 201.201 53.7114C202.734 52.6996 205.488 53.7962 207.135 55.2734C207.705 55.7846 209.83 55.2259 210.758 56.6694C211.852 58.3701 211.598 61.8384 211.129 62.2961C210.844 62.5742 210.193 61.8948 208.43 61.4588C206.798 61.0551 208.338 63.0515 206.45 62.7165C204.219 62.3203 203.782 61.6405 202.946 62.0482C202.062 62.4793 201.372 63.8139 201.572 64.8631C201.672 65.3838 201.96 65.6741 201.798 65.9388C201.501 66.4222 201.16 65.9481 200.78 66.4332C200.337 66.9974 201.437 68.4449 201.23 68.5847C201.188 68.6128 201.062 68.6092 199.874 67.4655C199.4 67.0088 199.261 66.7284 199.168 66.7714C199.018 66.8411 198.033 67.7594 198.409 68.4846C198.994 69.6131 198.246 69.6483 198.409 70.408C198.578 71.1918 198.011 70.4535 197.426 70.5058Z" fill="#2F2E41"/>
</g>
<defs>
<clipPath id="clip0_101_19">
<rect width="484" height="396" fill="white"/>
</clipPath>
</defs>
</svg>
