<svg width="225" height="147" viewBox="0 0 225 147" fill="none" xmlns="http://www.w3.org/2000/svg">
<path d="M86.3786 104.821C84.9338 104.821 83.7625 103.648 83.7625 102.202C83.7625 100.755 84.9338 99.5821 86.3786 99.5821C87.8235 99.5821 88.9948 100.755 88.9948 102.202C88.9948 103.648 87.8235 104.821 86.3786 104.821Z" fill="#3F3D56"/>
<path d="M66.6122 127.524C65.1673 127.524 63.996 126.351 63.996 124.904C63.996 123.457 65.1673 122.285 66.6122 122.285C68.057 122.285 69.2283 123.457 69.2283 124.904C69.2283 126.351 68.057 127.524 66.6122 127.524Z" fill="#3F3D56"/>
<path d="M93.5003 91.578L70.8271 120.975C70.8271 120.975 66.1762 129.707 58.9091 127.087C51.642 124.468 62.688 116.609 62.688 116.609L84.7798 87.2121C84.7798 87.2121 87.6867 79.3123 93.5003 80.9337C99.314 82.5551 93.5003 91.578 93.5003 91.578Z" fill="#379213"/>
<path d="M55.1747 112.232L59.0053 114.262L68.6489 100.433L62.9952 97.4373L55.1747 112.232Z" fill="#A0616A"/>
<path d="M68.3444 119.101C68.3573 119.365 68.077 120.048 67.9534 120.282C67.5733 121.001 66.6831 121.275 65.9651 120.894L54.1025 114.606C53.6127 114.347 53.4258 113.739 53.6851 113.248L53.9466 112.754C53.9466 112.754 54.1455 110.956 56.3222 109.765C56.3222 109.765 57.0654 111.995 60.497 110.938L61.7932 110.088L64.7285 116.135L67.2103 117.869C67.7532 118.248 68.312 118.439 68.3444 119.101Z" fill="#2F2E41"/>
<path d="M74.069 87.4917L77.8997 89.5216L87.5432 75.6935L81.8896 72.6973L74.069 87.4917Z" fill="#A0616A"/>
<path d="M87.2387 94.3609C87.2516 94.6252 86.9714 95.3077 86.8477 95.5416C86.4676 96.2606 85.5774 96.5349 84.8594 96.1543L72.9969 89.8665C72.5071 89.6069 72.3201 88.9988 72.5794 88.5083L72.8409 88.0138C72.8409 88.0138 73.0398 86.2165 75.2165 85.025C75.2165 85.025 75.9598 87.2553 79.3913 86.198L80.6875 85.3485L83.6228 91.3946L86.1046 93.129C86.6476 93.5084 87.2063 93.6987 87.2387 94.3609Z" fill="#2F2E41"/>
<path d="M60.3625 58.1063L74.606 81.0999L59.7812 102.056L65.5948 104.967C65.5948 104.967 84.4892 84.8836 85.0706 82.2641C85.6519 79.6446 79.2569 61.3079 79.2569 61.3079H91.3981L79.8383 75.8608L85.3612 79.3535L105.128 60.1437C105.128 60.1437 107.453 56.2751 105.128 54.8622C102.802 53.4493 81.9497 44.1355 81.9497 44.1355L60.3625 58.1063Z" fill="#2F2E41"/>
<path d="M93.0643 98.9999C91.6194 98.9999 90.4481 97.8271 90.4481 96.3804C90.4481 94.9337 91.6194 93.7609 93.0643 93.7609C94.5091 93.7609 95.6804 94.9337 95.6804 96.3804C95.6804 97.8271 94.5091 98.9999 93.0643 98.9999Z" fill="#3F3D56"/>
<path d="M73.4432 124.176C71.9984 124.176 70.8271 123.004 70.8271 121.557C70.8271 120.11 71.9984 118.937 73.4432 118.937C74.8881 118.937 76.0594 120.11 76.0594 121.557C76.0594 123.004 74.8881 124.176 73.4432 124.176Z" fill="#3F3D56"/>
<path d="M95.0991 23.6158L90.7389 15.4662C90.7389 15.4662 77.3835 18.0857 73.1606 23.6158C68.9377 29.1459 61.3799 43.6989 61.3799 43.6989C61.3799 43.6989 55.5663 55.3412 60.7986 61.7445C66.0309 68.1478 72.7166 55.3412 72.7166 55.3412L82.3091 44.572L83.4718 44.281L95.0991 23.6158Z" fill="#379213"/>
<path d="M101.733 57.8406C101.361 56.9374 100.778 56.1365 100.034 55.5049L93.7376 38.6316L88.8655 40.5107L96.0462 57.2146C95.9892 58.1895 96.1661 59.1639 96.5623 60.0563C97.5232 62.3035 99.4592 63.6283 100.887 63.0162C102.315 62.4041 102.693 60.0869 101.733 57.8406Z" fill="#A0616A"/>
<path d="M91.7562 24.0524L80.2743 27.6907L89.7215 44.1355L96.9885 43.5533L91.7562 24.0524Z" fill="#379213"/>
<path d="M118.585 37.6048C117.67 37.2673 116.687 37.1544 115.718 37.2754L99.0527 30.4936L97.1359 35.3563L114.276 41.3717C114.954 42.0737 115.79 42.6029 116.714 42.915C119.016 43.7281 121.301 43.1981 121.817 41.7315C122.334 40.2649 120.887 38.4172 118.585 37.6048Z" fill="#A0616A"/>
<path d="M91.0296 20.4142L82.5889 29.8907L100.38 37.1792L104.871 31.4294L91.0296 20.4142Z" fill="#379213"/>
<path d="M94.5177 7.06562C92.5691 7.06562 90.9895 5.48392 90.9895 3.53281C90.9895 1.58169 92.5691 0 94.5177 0C96.4663 0 98.046 1.58169 98.046 3.53281C98.046 5.48392 96.4663 7.06562 94.5177 7.06562Z" fill="#2F2E41"/>
<path d="M99.9372 19.3697C95.6936 19.3697 92.2535 15.9251 92.2535 11.6761C92.2535 7.427 95.6936 3.98245 99.9372 3.98245C104.181 3.98245 107.621 7.427 107.621 11.6761C107.621 15.9251 104.181 19.3697 99.9372 19.3697Z" fill="#A0616A"/>
<path d="M94.4263 18.5058C93.5058 18.5882 92.0032 16.2304 92.0701 13.947C92.1132 12.478 90.8395 12.1891 90.7449 10.2947C90.6897 9.19082 92.3832 8.84664 92.4995 7.96126C92.7103 6.35705 93.7439 5.27758 93.8729 5.14635C94.9869 4.01357 95.7731 4.38182 97.083 3.06896C97.8717 2.27856 97.6696 2.06201 98.2008 1.71142C99.7337 0.699604 102.488 1.79622 104.135 3.27341C104.705 3.78458 106.83 3.2259 107.758 4.66938C108.852 6.37006 108.598 9.8384 108.129 10.2961C107.844 10.5742 107.193 9.89481 105.43 9.45877C103.798 9.05507 105.338 11.0515 103.45 10.7165C101.219 10.3203 100.782 9.64045 99.9458 10.0482C99.0623 10.4793 98.3719 11.8139 98.5724 12.8631C98.6718 13.3838 98.9601 13.6741 98.7975 13.9388C98.5008 14.4222 98.1602 13.9481 97.7795 14.4332C97.3367 14.9974 98.437 16.4449 98.2299 16.5847C98.1881 16.6128 98.0617 16.6092 96.8741 15.4655C96.3998 15.0088 96.2608 14.7284 96.168 14.7714C96.0178 14.8411 95.0334 15.7594 95.4093 16.4846C95.9943 17.6131 95.2456 17.6483 95.4093 18.408C95.5781 19.1918 95.0113 18.4535 94.4263 18.5058Z" fill="#2F2E41"/>
</svg>
